<svg id="Layer_1" data-name="Layer 1" xmlns="http://www.w3.org/2000/svg" xmlns:xlink="http://www.w3.org/1999/xlink" viewBox="0 0 1591.25 411.14"><defs><style>.cls-1{fill:url(#linear-gradient);}.cls-2,.cls-3,.cls-4{isolation:isolate;}.cls-3,.cls-4{font-size:223px;font-family:GreatVibes-Regular, Great Vibes;}.cls-4{fill:#007180;}</style><linearGradient id="linear-gradient" y1="1082.97" x2="-0.74" y2="1081.97" gradientTransform="matrix(448.03, 0, 0, -348.37, 563.99, 377557.78)" gradientUnits="userSpaceOnUse"><stop offset="0" stop-color="#fff"/><stop offset="0.09" stop-color="#fff"/><stop offset="0.48" stop-color="#007180"/><stop offset="1" stop-color="#001013"/></linearGradient></defs><g id="Logo_large" data-name="Logo large"><g id="noun_Fountain_Pen_16347" data-name="noun Fountain Pen 16347"><path id="Path_1" data-name="Path 1" class="cls-1" d="M335.4,578.68c-.67.45-4.93,12.52-12.1,30.71-5.7,14.42-12,17.25-27.08,20.23a51.84,51.84,0,0,0-23.47,10.93c-2.57,2-5.51,1.1-3.28-1.92,3.21-4.34,22.84-23.32,30.31-30.67a3.1,3.1,0,0,0,2.92-5,2.83,2.83,0,0,0-3.87-.51c-1.16,1.05-18.76,17.94-20.46,19.58,20-24.37,29.48-35.68,45.13-54.26ZM584.75,301.05C444.26,434.61,407.4,468.35,326.26,564.46l11.9,11.15c10.73-3.67,21.32,6.53,37.62-4.34,22.6-15.07,214.79-257,218.61-261.87C600.43,301.72,593,293.19,584.75,301.05Zm-416,326.14a31.2,31.2,0,0,1-4.53,2.41c-7.53,4.09-7.93,7.62-7.8,9.31.48,4.68,7.1,8.53,31.15,7.07,9.93-.83,19.57-2.58,28.55-4.05s20.14-2.9,24.4-2.9c13,0,14.05,3.68,23.84,3.68.89,0,1.55-.2,1.55-1.17s-1-1.15-1.49-1.17c-8.28,0-10.36-5.35-23.94-5.31-7.44-.07-9.79-.2-30.13,2.65s-44.6,4-44.6-.09c0-2.38,16.8-6.83,16.8-13.7,0-3.66-4.64-8.87-29.17-4.48-2.16.41-5,1.8-4.8,4.93.15,2.82,2.45,5.09,6.6,4a104.69,104.69,0,0,1,13.08-1.94C168.81,626.4,169,627,168.73,627.19Z" transform="translate(-148.55 -297.92)"/></g><g id="Group_1" data-name="Group 1"><g id="Eloquent_Writers" data-name="Eloquent Writers" class="cls-2"><text class="cls-3" transform="translate(272.01 321.72)">Eloquent Writers</text></g><g id="Eloquent_Writers-2" data-name="Eloquent Writers-2" class="cls-2"><text class="cls-4" transform="translate(266.01 315.72)">Eloquent Writers</text></g></g></g></svg>