<svg id="Layer_1" data-name="Layer 1" xmlns="http://www.w3.org/2000/svg" xmlns:xlink="http://www.w3.org/1999/xlink" viewBox="0 0 544.27 441.64"><defs><style>.cls-1{fill:url(#linear-gradient);}.cls-2,.cls-3,.cls-4,.cls-5,.cls-6{isolation:isolate;}.cls-3,.cls-5{font-size:158px;}.cls-3,.cls-4,.cls-5,.cls-6{font-family:GreatVibes-Regular, Great Vibes;}.cls-4,.cls-6{font-size:334px;}.cls-5,.cls-6{fill:#007180;}</style><linearGradient id="linear-gradient" x1="1.15" y1="1083.46" x2="0.42" y2="1082.46" gradientTransform="matrix(367.71, 0, 0, -283.36, 564, 307367.41)" gradientUnits="userSpaceOnUse"><stop offset="0" stop-color="#fff"/><stop offset="0.28" stop-color="#007180"/><stop offset="1" stop-color="#001013"/></linearGradient></defs><g id="logo_small" data-name="logo small"><path id="Path_1" data-name="Path 1" class="cls-1" d="M876.72,520.25c-1.07.83-7.81,23-19.19,56.4-9,26.46-19,31.67-42.94,37.13a78.62,78.62,0,0,0-37.21,20.08c-4.06,3.63-8.74,2-5.2-3.54,5.09-8,36.21-42.82,48.06-56.3a4.45,4.45,0,0,0,4-1.2,6.36,6.36,0,0,0,.63-8.05c-1.34-1.87-4.31-2.86-6.14-.95s-29.74,32.94-32.44,36C818,555,833,534.27,857.84,500.15Zm91.84-153.62c-65.93,72.6,21-16,0,0-49.16,37.57-15.77,3.27-106.34,127.5l18.86,20.49c17-6.75,36-35.85,61.89-55.8,35.84-27.67,43.34-68.23,49.39-77.13,9.57-14.1-10.79-29.49-23.8-15.06ZM642.29,643.83c15.75-1.53,31-4.74,45.27-7.45s31.93-5.33,38.7-5.33c20.63,0,22.27,6.76,37.8,6.76,1.4,0,2.45-.37,2.45-2.14a2.16,2.16,0,0,0-2.15-2.16h-.21c-13.13,0-16.43-9.82-38-9.76-11.8-.11-15.53-.35-47.78,4.87S604.16,646.5,642.29,643.83Z" transform="translate(-627.13 -319.84)"/><g id="Group_5" data-name="Group 5"><g id="Group_3" data-name="Group 3"><g id="Group_2" data-name="Group 2"><g id="E" class="cls-2"><text class="cls-3" transform="translate(236.61 304.65)">E</text></g></g><g id="w" class="cls-2"><text class="cls-4" transform="translate(376.28 307.7)">w</text></g></g><g id="Group_4" data-name="Group 4"><g id="Group_2-2" data-name="Group 2-2"><g id="E-2" class="cls-2"><text class="cls-5" transform="translate(230.18 298.22)">E</text></g></g><g id="w-2" class="cls-2"><text class="cls-6" transform="translate(369.84 301.27)">w</text></g></g></g></g></svg>